# xmcd
#
# Track frame offsets:
#	150
#	11916
#	23376
#	39264
#	50232
#	57962
#	64937
#	79359
#	92929
#	102177
#	111012
#	121600
#	129970
#	141871
#	155018
#
# Disc length: 2226 seconds
#
# Revision: 0
# Processed by: cddbd v1.5.2PL0 Copyright (c) Steve Scherf et al.
# Submitted via: EasyCDDAExtractor 16.1.0.1
#
DISCID=c508b00f
DTITLE=Петр Налич - Радость простых мелодий
DYEAR=1900
DGENRE=
TTITLE0=Сердце поэта
TTITLE1=Gitar
TTITLE2=Дача
TTITLE3=Стерте сердце
TTITLE4=Галя
TTITLE5=Overburdened
TTITLE6=Баба Люба
TTITLE7=Деридум
TTITLE8=Santa Lucia
TTITLE9=Никогда
TTITLE10=Йети
TTITLE11=Давай разведёмся
TTITLE12=Black Oak
TTITLE13=Крылья
TTITLE14=Disappointment
EXTD=
EXTT0=
EXTT1=
EXTT2=
EXTT3=
EXTT4=
EXTT5=
EXTT6=
EXTT7=
EXTT8=
EXTT9=
EXTT10=
EXTT11=
EXTT12=
EXTT13=
EXTT14=
PLAYORDER=
